<svg width="1280" height="76" viewBox="0 0 1280 76" fill="none" xmlns="http://www.w3.org/2000/svg">
<path fill-rule="evenodd" clip-rule="evenodd" d="M0 29.1863L35.5556 33.901C71.1111 38.8402 142.222 48.4942 213.333 48.4942C284.444 48.4942 355.556 38.8402 426.667 45.351C497.778 51.6373 568.889 74.3128 640 75.8844C711.111 77.6805 782.222 58.1481 853.333 45.351C924.444 32.3294 995.556 25.8186 1066.67 27.3902C1137.78 29.1863 1208.89 38.8402 1244.44 43.5549L1280 48.4942V0H1244.44C1208.89 0 1137.78 0 1066.67 0C995.556 0 924.444 0 853.333 0C782.222 0 711.111 0 640 0C568.889 0 497.778 0 426.667 0C355.556 0 284.444 0 213.333 0C142.222 0 71.1111 0 35.5556 0H0V29.1863Z" fill="white"/>
</svg>
